<mxfile host="app.diagrams.net" agent="Mozilla/5.0 (Windows NT 10.0; Win64; x64) AppleWebKit/537.36 (KHTML, like Gecko) Chrome/131.0.0.0 Safari/537.36 Edg/131.0.0.0" version="25.0.3">
  <diagram name="Page-1" id="GoE5Tglz589SEUrMWIel">
    <mxGraphModel dx="1393" dy="1444" grid="1" gridSize="10" guides="1" tooltips="1" connect="1" arrows="1" fold="1" page="1" pageScale="1" pageWidth="850" pageHeight="1100" math="0" shadow="0">
      <root>
        <mxCell id="0" />
        <mxCell id="1" parent="0" />
        <mxCell id="Cb37p6yF2RyoBj5KnBRC-1" value="" style="edgeStyle=orthogonalEdgeStyle;rounded=0;orthogonalLoop=1;jettySize=auto;html=1;" edge="1" parent="1" source="Cb37p6yF2RyoBj5KnBRC-2" target="Cb37p6yF2RyoBj5KnBRC-13">
          <mxGeometry relative="1" as="geometry" />
        </mxCell>
        <mxCell id="Cb37p6yF2RyoBj5KnBRC-2" value="Get all route related to &#xa;current connectom" style="" vertex="1" parent="1">
          <mxGeometry x="-55" y="-220" width="135" height="50" as="geometry" />
        </mxCell>
        <mxCell id="Cb37p6yF2RyoBj5KnBRC-28" value="" style="edgeStyle=orthogonalEdgeStyle;rounded=0;orthogonalLoop=1;jettySize=auto;html=1;" edge="1" parent="1" source="Cb37p6yF2RyoBj5KnBRC-4" target="Cb37p6yF2RyoBj5KnBRC-9">
          <mxGeometry relative="1" as="geometry" />
        </mxCell>
        <mxCell id="Cb37p6yF2RyoBj5KnBRC-4" value="Select routes and &#xa;modify the pointer &#xa;to the new connectom" style="" vertex="1" parent="1">
          <mxGeometry x="-55" y="-60" width="135" height="70" as="geometry" />
        </mxCell>
        <mxCell id="Cb37p6yF2RyoBj5KnBRC-7" value="" style="edgeStyle=orthogonalEdgeStyle;rounded=0;orthogonalLoop=1;jettySize=auto;html=1;" edge="1" parent="1" source="Cb37p6yF2RyoBj5KnBRC-8" target="Cb37p6yF2RyoBj5KnBRC-18">
          <mxGeometry relative="1" as="geometry" />
        </mxCell>
        <mxCell id="Cb37p6yF2RyoBj5KnBRC-8" value="" style="ellipse;whiteSpace=wrap;html=1;aspect=fixed;" vertex="1" parent="1">
          <mxGeometry x="-2.5" y="-390" width="30" height="30" as="geometry" />
        </mxCell>
        <mxCell id="Cb37p6yF2RyoBj5KnBRC-9" value="" style="ellipse;whiteSpace=wrap;html=1;aspect=fixed;" vertex="1" parent="1">
          <mxGeometry x="-2.5" y="40" width="30" height="30" as="geometry" />
        </mxCell>
        <mxCell id="Cb37p6yF2RyoBj5KnBRC-12" value="" style="edgeStyle=orthogonalEdgeStyle;rounded=0;orthogonalLoop=1;jettySize=auto;html=1;" edge="1" parent="1" source="Cb37p6yF2RyoBj5KnBRC-13" target="Cb37p6yF2RyoBj5KnBRC-4">
          <mxGeometry relative="1" as="geometry" />
        </mxCell>
        <mxCell id="Cb37p6yF2RyoBj5KnBRC-13" value="Copy a new connectom" style="" vertex="1" parent="1">
          <mxGeometry x="-55" y="-140" width="135" height="50" as="geometry" />
        </mxCell>
        <mxCell id="Cb37p6yF2RyoBj5KnBRC-16" value="" style="edgeStyle=orthogonalEdgeStyle;rounded=0;orthogonalLoop=1;jettySize=auto;html=1;" edge="1" parent="1" source="Cb37p6yF2RyoBj5KnBRC-18" target="Cb37p6yF2RyoBj5KnBRC-2">
          <mxGeometry relative="1" as="geometry" />
        </mxCell>
        <mxCell id="Cb37p6yF2RyoBj5KnBRC-17" value="No" style="edgeLabel;html=1;align=center;verticalAlign=middle;resizable=0;points=[];" vertex="1" connectable="0" parent="Cb37p6yF2RyoBj5KnBRC-16">
          <mxGeometry x="0.216" y="1" relative="1" as="geometry">
            <mxPoint as="offset" />
          </mxGeometry>
        </mxCell>
        <mxCell id="Cb37p6yF2RyoBj5KnBRC-26" value="Yes" style="edgeLabel;html=1;align=center;verticalAlign=middle;resizable=0;points=[];" vertex="1" connectable="0" parent="Cb37p6yF2RyoBj5KnBRC-16">
          <mxGeometry x="-0.6669" y="-1" relative="1" as="geometry">
            <mxPoint as="offset" />
          </mxGeometry>
        </mxCell>
        <mxCell id="Cb37p6yF2RyoBj5KnBRC-24" style="edgeStyle=orthogonalEdgeStyle;rounded=0;orthogonalLoop=1;jettySize=auto;html=1;exitX=0;exitY=0.5;exitDx=0;exitDy=0;entryX=0.5;entryY=0;entryDx=0;entryDy=0;" edge="1" parent="1" source="Cb37p6yF2RyoBj5KnBRC-18">
          <mxGeometry relative="1" as="geometry">
            <mxPoint x="-170" y="-220" as="targetPoint" />
          </mxGeometry>
        </mxCell>
        <mxCell id="Cb37p6yF2RyoBj5KnBRC-25" value="No" style="edgeLabel;html=1;align=center;verticalAlign=middle;resizable=0;points=[];" vertex="1" connectable="0" parent="Cb37p6yF2RyoBj5KnBRC-24">
          <mxGeometry x="-0.136" y="1" relative="1" as="geometry">
            <mxPoint as="offset" />
          </mxGeometry>
        </mxCell>
        <mxCell id="Cb37p6yF2RyoBj5KnBRC-18" value="If current connectom accumulates enough information?" style="rhombus;whiteSpace=wrap;html=1;" vertex="1" parent="1">
          <mxGeometry x="-82.5" y="-330" width="190" height="80" as="geometry" />
        </mxCell>
        <mxCell id="Cb37p6yF2RyoBj5KnBRC-21" value="" style="ellipse;whiteSpace=wrap;html=1;aspect=fixed;" vertex="1" parent="1">
          <mxGeometry x="-185" y="-220" width="30" height="30" as="geometry" />
        </mxCell>
      </root>
    </mxGraphModel>
  </diagram>
</mxfile>
